# xmcd CD database file
#
# Track frame offsets:
#	150
#	11710
#	24678
#	46465
#	66560
#	88968
#	107268
#	122138
#	141058
#	156638
#	172268
#	189375
#
# Disc length: 2884 seconds
#
# Revision: 7
# Processed by: cddbd v1.5.2PL0 Copyright (c) Steve Scherf et al.
# Submitted via: CDex 1.70beta2
#
DISCID=b00b420c
DTITLE=Motorhead - Bastards
DYEAR=1993
DGENRE=Heavy Metal
TTITLE0=On Your Feet Or On Your Knees
TTITLE1=Burner
TTITLE2=Death Or Glory
TTITLE3=I Am The Sword
TTITLE4=Born To Raise Hell
TTITLE5=Don't Let Daddy Kiss Me
TTITLE6=Bad Woman
TTITLE7=Liar
TTITLE8=Lost In The Ozone
TTITLE9=I'm Your Man
TTITLE10=We Bring The Shake
TTITLE11=Devils
EXTD=P&C 1993 Motorhead/ZYX Music YEAR: 1993
EXTT0=
EXTT1=
EXTT2=
EXTT3=
EXTT4=
EXTT5=
EXTT6=
EXTT7=
EXTT8=
EXTT9=
EXTT10=
EXTT11=
PLAYORDER=
